{
  "accessors": [
    {
      "bufferView": 2,
      "componentType": 5126,
      "count": 299,
      "max": [
        1.802882432937622,
        0.48210009932518005,
        0.6951223611831665
      ],
      "min": [
        -1.8591814041137695,
        -0.444839209318161,
        -0.6662958264350891
      ],
      "type": "VEC3"
    },
    {
      "bufferView": 2,
      "byteOffset": 3588,
      "componentType": 5126,
      "count": 299,
      "max": [
        1.0,
        1.0,
        1.0
      ],
      "min": [
        -1.0,
        -1.0,
        -1.0
      ],
      "type": "VEC3"
    },
    {
      "bufferView": 3,
      "componentType": 5126,
      "count": 299,
      "max": [
        1.0,
        1.0,
        1.0,
        1.0
      ],
      "min": [
        -1.0,
        -1.0,
        -1.0,
        1.0
      ],
      "type": "VEC4"
    },
    {
      "bufferView": 1,
      "componentType": 5126,
      "count": 299,
      "max": [
        0.9997907876968384,
        0.7583892941474915
      ],
      "min": [
        0.0002092175418511033,
        0.0002092175418511033
      ],
      "type": "VEC2"
    },
    {
      "bufferView": 1,
      "byteOffset": 2392,
      "componentType": 5126,
      "count": 299,
      "max": [
        0.9997907876968384,
        0.7583892941474915
      ],
      "min": [
        0.0002092175418511033,
        0.0002092175418511033
      ],
      "type": "VEC2"
    },
    {
      "bufferView": 1,
      "byteOffset": 4784,
      "componentType": 5126,
      "count": 299,
      "max": [
        0.9997907876968384,
        0.7583892941474915
      ],
      "min": [
        0.0002092175418511033,
        0.0002092175418511033
      ],
      "type": "VEC2"
    },
    {
      "bufferView": 0,
      "componentType": 5125,
      "count": 516,
      "type": "SCALAR"
    }
  ],
  "asset": {
    "extras": {
      "author": "Vilad (https://sketchfab.com/Vilad)",
      "license": "CC-BY-4.0 (http://creativecommons.org/licenses/by/4.0/)",
      "source": "https://sketchfab.com/3d-models/marble-tv-stand-a9ac1b4da53544af9dfbe76c519fbcd1",
      "title": "Marble TV Stand"
    },
    "generator": "Sketchfab-12.65.0",
    "version": "2.0"
  },
  "bufferViews": [
    {
      "buffer": 0,
      "byteLength": 2064,
      "name": "floatBufferViews",
      "target": 34963
    },
    {
      "buffer": 0,
      "byteLength": 7176,
      "byteOffset": 2064,
      "byteStride": 8,
      "name": "floatBufferViews",
      "target": 34962
    },
    {
      "buffer": 0,
      "byteLength": 7176,
      "byteOffset": 9240,
      "byteStride": 12,
      "name": "floatBufferViews",
      "target": 34962
    },
    {
      "buffer": 0,
      "byteLength": 4784,
      "byteOffset": 16416,
      "byteStride": 16,
      "name": "floatBufferViews",
      "target": 34962
    }
  ],
  "buffers": [
    {
      "byteLength": 21200,
      "uri": "scene.bin"
    }
  ],
  "images": [
    {
      "uri": "textures/Material.001_baseColor.png"
    },
    {
      "uri": "textures/Material.001_metallicRoughness.png"
    },
    {
      "uri": "textures/Material.001_normal.png"
    }
  ],
  "materials": [
    {
      "doubleSided": true,
      "name": "Material.001",
      "normalTexture": {
        "index": 2
      },
      "pbrMetallicRoughness": {
        "baseColorTexture": {
          "index": 0
        },
        "metallicFactor": 0.0,
        "metallicRoughnessTexture": {
          "index": 1
        }
      }
    }
  ],
  "meshes": [
    {
      "name": "Marble TV Stand_Material.001_0",
      "primitives": [
        {
          "attributes": {
            "NORMAL": 1,
            "POSITION": 0,
            "TANGENT": 2,
            "TEXCOORD_0": 3,
            "TEXCOORD_1": 4,
            "TEXCOORD_2": 5
          },
          "indices": 6,
          "material": 0,
          "mode": 4
        }
      ]
    }
  ],
  "nodes": [
    {
      "children": [
        1
      ],
      "matrix": [
        1.0,
        0.0,
        0.0,
        0.0,
        0.0,
        2.220446049250313e-16,
        -1.0,
        0.0,
        0.0,
        1.0,
        2.220446049250313e-16,
        0.0,
        0.0,
        0.0,
        0.0,
        1.0
      ],
      "name": "Sketchfab_model"
    },
    {
      "children": [
        2
      ],
      "matrix": [
        0.009999999776482582,
        0.0,
        0.0,
        0.0,
        0.0,
        0.0,
        0.009999999776482582,
        0.0,
        0.0,
        -0.009999999776482582,
        0.0,
        0.0,
        0.0,
        0.0,
        0.0,
        1.0
      ],
      "name": "34172f06ed4f497a9c9c21731d70c75e.fbx"
    },
    {
      "children": [
        3
      ],
      "name": "RootNode"
    },
    {
      "children": [
        4
      ],
      "matrix": [
        100.0,
        0.0,
        0.0,
        0.0,
        -0.0,
        -1.629206793918314e-05,
        -99.99999999999868,
        0.0,
        0.0,
        99.99999999999868,
        -1.629206793918314e-05,
        0.0,
        -10.664788246154785,
        66.62958526611328,
        -76.4356689453125,
        1.0
      ],
      "name": "Marble TV Stand"
    },
    {
      "mesh": 0,
      "name": "Marble TV Stand_Material.001_0"
    }
  ],
  "samplers": [
    {
      "magFilter": 9729,
      "minFilter": 9987,
      "wrapS": 10497,
      "wrapT": 10497
    }
  ],
  "scene": 0,
  "scenes": [
    {
      "name": "Sketchfab_Scene",
      "nodes": [
        0
      ]
    }
  ],
  "textures": [
    {
      "sampler": 0,
      "source": 0
    },
    {
      "sampler": 0,
      "source": 1
    },
    {
      "sampler": 0,
      "source": 2
    }
  ]
}
