{
  "accessors": [
    {
      "bufferView": 2,
      "componentType": 5126,
      "count": 36,
      "max": [
        0.25733500719070435,
        -0.13214600086212158,
        0.11729100346565247
      ],
      "min": [
        -0.3526709973812103,
        -0.5961290001869202,
        -0.35107699036598206
      ],
      "type": "VEC3"
    },
    {
      "bufferView": 2,
      "byteOffset": 432,
      "componentType": 5126,
      "count": 36,
      "max": [
        1.0,
        0.0,
        0.9998085498809814
      ],
      "min": [
        -1.0,
        -0.9998085498809814,
        -0.9998085498809814
      ],
      "type": "VEC3"
    },
    {
      "bufferView": 3,
      "componentType": 5126,
      "count": 36,
      "max": [
        0.9994072318077087,
        0.9999011754989624,
        0.9999995827674866,
        1.0
      ],
      "min": [
        -0.9998085498809814,
        -1.0,
        -0.706263542175293,
        1.0
      ],
      "type": "VEC4"
    },
    {
      "bufferView": 1,
      "componentType": 5126,
      "count": 36,
      "max": [
        0.8921520113945007,
        0.9419580101966858
      ],
      "min": [
        0.25414401292800903,
        0.20373499393463135
      ],
      "type": "VEC2"
    },
    {
      "bufferView": 0,
      "componentType": 5125,
      "count": 90,
      "type": "SCALAR"
    },
    {
      "bufferView": 2,
      "byteOffset": 864,
      "componentType": 5126,
      "count": 3203,
      "max": [
        0.21836699545383453,
        -0.21134300529956818,
        0.49942201375961304
      ],
      "min": [
        -0.3137040138244629,
        -0.7190849781036377,
        0.14358599483966827
      ],
      "type": "VEC3"
    },
    {
      "bufferView": 2,
      "byteOffset": 39300,
      "componentType": 5126,
      "count": 3203,
      "max": [
        1.0,
        0.9976388812065125,
        0.9994940161705017
      ],
      "min": [
        -1.0,
        -0.8660281896591187,
        -0.9531027674674988
      ],
      "type": "VEC3"
    },
    {
      "bufferView": 3,
      "byteOffset": 576,
      "componentType": 5126,
      "count": 3203,
      "max": [
        0.9984474778175354,
        0.9986428618431091,
        0.9976575970649719,
        1.0
      ],
      "min": [
        -0.9984464645385742,
        -0.9994120597839355,
        -0.9993199706077576,
        1.0
      ],
      "type": "VEC4"
    },
    {
      "bufferView": 1,
      "byteOffset": 288,
      "componentType": 5126,
      "count": 3203,
      "max": [
        0.9953020215034485,
        0.9973180294036865
      ],
      "min": [
        0.0029639999847859144,
        0.004401000216603279
      ],
      "type": "VEC2"
    },
    {
      "bufferView": 0,
      "byteOffset": 360,
      "componentType": 5125,
      "count": 14280,
      "type": "SCALAR"
    },
    {
      "bufferView": 2,
      "byteOffset": 77736,
      "componentType": 5126,
      "count": 14571,
      "max": [
        0.4145680069923401,
        0.9514639973640442,
        0.23500500619411469
      ],
      "min": [
        -0.47280898690223694,
        -0.8392869830131531,
        -0.4406459927558899
      ],
      "type": "VEC3"
    },
    {
      "bufferView": 2,
      "byteOffset": 252588,
      "componentType": 5126,
      "count": 14571,
      "max": [
        1.0,
        1.0,
        1.0
      ],
      "min": [
        -1.0,
        -1.0,
        -1.0
      ],
      "type": "VEC3"
    },
    {
      "bufferView": 3,
      "byteOffset": 51824,
      "componentType": 5126,
      "count": 14571,
      "max": [
        1.0,
        1.0,
        1.0,
        1.0
      ],
      "min": [
        -1.0,
        -1.0,
        -1.0,
        -1.0
      ],
      "type": "VEC4"
    },
    {
      "bufferView": 1,
      "byteOffset": 25912,
      "componentType": 5126,
      "count": 14571,
      "max": [
        0.9999589920043945,
        1.0
      ],
      "min": [
        0.0,
        0.0
      ],
      "type": "VEC2"
    },
    {
      "bufferView": 0,
      "byteOffset": 57480,
      "componentType": 5125,
      "count": 66270,
      "type": "SCALAR"
    },
    {
      "bufferView": 2,
      "byteOffset": 427440,
      "componentType": 5126,
      "count": 8025,
      "max": [
        0.745697021484375,
        0.11785600334405899,
        0.4794130027294159
      ],
      "min": [
        -0.6193820238113403,
        -0.9535620212554932,
        -0.7131980061531067
      ],
      "type": "VEC3"
    },
    {
      "bufferView": 2,
      "byteOffset": 523740,
      "componentType": 5126,
      "count": 8025,
      "max": [
        1.0,
        1.0,
        1.0
      ],
      "min": [
        -1.0,
        -1.0,
        -1.0
      ],
      "type": "VEC3"
    },
    {
      "bufferView": 3,
      "byteOffset": 284960,
      "componentType": 5126,
      "count": 8025,
      "max": [
        1.0,
        1.0,
        1.0,
        1.0
      ],
      "min": [
        -1.0,
        -1.0,
        -1.0,
        -1.0
      ],
      "type": "VEC4"
    },
    {
      "bufferView": 1,
      "byteOffset": 142480,
      "componentType": 5126,
      "count": 8025,
      "max": [
        1.0,
        0.9973000288009644
      ],
      "min": [
        0.0,
        0.0
      ],
      "type": "VEC2"
    },
    {
      "bufferView": 0,
      "byteOffset": 322560,
      "componentType": 5125,
      "count": 31776,
      "type": "SCALAR"
    },
    {
      "bufferView": 2,
      "byteOffset": 620040,
      "componentType": 5126,
      "count": 972,
      "max": [
        0.18611100316047668,
        -0.23231300711631775,
        0.48910099267959595
      ],
      "min": [
        -0.28144699335098267,
        -0.6380339860916138,
        0.25171199440956116
      ],
      "type": "VEC3"
    },
    {
      "bufferView": 2,
      "byteOffset": 631704,
      "componentType": 5126,
      "count": 972,
      "max": [
        1.0,
        0.9957494735717773,
        0.8660556077957153
      ],
      "min": [
        -1.0,
        -0.8660227060317993,
        -0.5000060200691223
      ],
      "type": "VEC3"
    },
    {
      "bufferView": 3,
      "byteOffset": 413360,
      "componentType": 5126,
      "count": 972,
      "max": [
        0.9999994039535522,
        0.9994193315505981,
        0.9999231696128845,
        1.0
      ],
      "min": [
        -0.9999994039535522,
        -0.9994203448295593,
        -0.9999348521232605,
        1.0
      ],
      "type": "VEC4"
    },
    {
      "bufferView": 1,
      "byteOffset": 206680,
      "componentType": 5126,
      "count": 972,
      "max": [
        0.9977080225944519,
        0.9978200197219849
      ],
      "min": [
        0.2507779896259308,
        0.11594799906015396
      ],
      "type": "VEC2"
    },
    {
      "bufferView": 0,
      "byteOffset": 449664,
      "componentType": 5125,
      "count": 3600,
      "type": "SCALAR"
    },
    {
      "bufferView": 2,
      "byteOffset": 643368,
      "componentType": 5126,
      "count": 4932,
      "max": [
        0.4903239905834198,
        -0.13215099275112152,
        0.4794130027294159
      ],
      "min": [
        -0.4930959939956665,
        -0.8948590159416199,
        -0.7131980061531067
      ],
      "type": "VEC3"
    },
    {
      "bufferView": 2,
      "byteOffset": 702552,
      "componentType": 5126,
      "count": 4932,
      "max": [
        1.0,
        1.0,
        1.0
      ],
      "min": [
        -1.0,
        -1.0,
        -1.0
      ],
      "type": "VEC3"
    },
    {
      "bufferView": 3,
      "byteOffset": 428912,
      "componentType": 5126,
      "count": 4932,
      "max": [
        1.0,
        1.0,
        1.0,
        1.0
      ],
      "min": [
        -1.0,
        -1.0,
        -1.0,
        1.0
      ],
      "type": "VEC4"
    },
    {
      "bufferView": 1,
      "byteOffset": 214456,
      "componentType": 5126,
      "count": 4932,
      "max": [
        1.0,
        0.9488360285758972
      ],
      "min": [
        0.0,
        0.0
      ],
      "type": "VEC2"
    },
    {
      "bufferView": 0,
      "byteOffset": 464064,
      "componentType": 5125,
      "count": 23616,
      "type": "SCALAR"
    },
    {
      "bufferView": 2,
      "byteOffset": 761736,
      "componentType": 5126,
      "count": 47187,
      "max": [
        0.7462379932403564,
        0.9583200216293335,
        0.06904640048742294
      ],
      "min": [
        -0.9542629718780518,
        -0.9583200216293335,
        -0.7751240134239197
      ],
      "type": "VEC3"
    },
    {
      "bufferView": 2,
      "byteOffset": 1327980,
      "componentType": 5126,
      "count": 47187,
      "max": [
        1.0,
        1.0,
        1.0
      ],
      "min": [
        -1.0,
        -1.0,
        -1.0
      ],
      "type": "VEC3"
    },
    {
      "bufferView": 3,
      "byteOffset": 507824,
      "componentType": 5126,
      "count": 47187,
      "max": [
        1.0,
        1.0,
        1.0,
        1.0
      ],
      "min": [
        -1.0,
        -1.0,
        -1.0,
        1.0
      ],
      "type": "VEC4"
    },
    {
      "bufferView": 1,
      "byteOffset": 253912,
      "componentType": 5126,
      "count": 47187,
      "max": [
        0.9890769720077515,
        0.9917460083961487
      ],
      "min": [
        0.0,
        0.0
      ],
      "type": "VEC2"
    },
    {
      "bufferView": 0,
      "byteOffset": 558528,
      "componentType": 5125,
      "count": 254700,
      "type": "SCALAR"
    }
  ],
  "asset": {
    "extras": {
      "author": "MrM0lten (https://sketchfab.com/MrM0lten)",
      "license": "CC-BY-4.0 (http://creativecommons.org/licenses/by/4.0/)",
      "source": "https://sketchfab.com/3d-models/antique-phone-d783caebf9654933bcaa63641fbe223a",
      "title": "Antique Phone"
    },
    "generator": "Sketchfab-12.68.0",
    "version": "2.0"
  },
  "bufferViews": [
    {
      "buffer": 0,
      "byteLength": 1577328,
      "name": "floatBufferViews",
      "target": 34963
    },
    {
      "buffer": 0,
      "byteLength": 631408,
      "byteOffset": 1577328,
      "byteStride": 8,
      "name": "floatBufferViews",
      "target": 34962
    },
    {
      "buffer": 0,
      "byteLength": 1894224,
      "byteOffset": 2208736,
      "byteStride": 12,
      "name": "floatBufferViews",
      "target": 34962
    },
    {
      "buffer": 0,
      "byteLength": 1262816,
      "byteOffset": 4102960,
      "byteStride": 16,
      "name": "floatBufferViews",
      "target": 34962
    }
  ],
  "buffers": [
    {
      "byteLength": 5365776,
      "uri": "scene.bin"
    }
  ],
  "images": [
    {
      "uri": "textures/lambert10SG_baseColor.jpeg"
    },
    {
      "uri": "textures/lambert10SG_metallicRoughness.png"
    },
    {
      "uri": "textures/lambert10SG_normal.png"
    },
    {
      "uri": "textures/lambert11SG_baseColor.jpeg"
    },
    {
      "uri": "textures/lambert11SG_metallicRoughness.png"
    },
    {
      "uri": "textures/lambert11SG_normal.png"
    },
    {
      "uri": "textures/lambert13SG_baseColor.png"
    },
    {
      "uri": "textures/lambert13SG_metallicRoughness.png"
    },
    {
      "uri": "textures/lambert13SG_normal.png"
    },
    {
      "uri": "textures/lambert12SG_baseColor.jpeg"
    },
    {
      "uri": "textures/lambert12SG_metallicRoughness.png"
    },
    {
      "uri": "textures/lambert12SG_normal.png"
    }
  ],
  "materials": [
    {
      "doubleSided": true,
      "name": "lambert10SG",
      "normalTexture": {
        "index": 2
      },
      "occlusionTexture": {
        "index": 1
      },
      "pbrMetallicRoughness": {
        "baseColorTexture": {
          "index": 0
        },
        "metallicRoughnessTexture": {
          "index": 1
        }
      }
    },
    {
      "doubleSided": true,
      "name": "lambert11SG",
      "normalTexture": {
        "index": 5
      },
      "occlusionTexture": {
        "index": 4
      },
      "pbrMetallicRoughness": {
        "baseColorTexture": {
          "index": 3
        },
        "metallicRoughnessTexture": {
          "index": 4
        }
      }
    },
    {
      "alphaMode": "BLEND",
      "doubleSided": true,
      "name": "lambert13SG",
      "normalTexture": {
        "index": 8
      },
      "occlusionTexture": {
        "index": 7
      },
      "pbrMetallicRoughness": {
        "baseColorTexture": {
          "index": 6
        },
        "metallicRoughnessTexture": {
          "index": 7
        }
      }
    },
    {
      "doubleSided": true,
      "name": "lambert12SG",
      "normalTexture": {
        "index": 11
      },
      "occlusionTexture": {
        "index": 10
      },
      "pbrMetallicRoughness": {
        "baseColorTexture": {
          "index": 9
        },
        "metallicRoughnessTexture": {
          "index": 10
        }
      }
    }
  ],
  "meshes": [
    {
      "name": "defaultMaterial",
      "primitives": [
        {
          "attributes": {
            "NORMAL": 1,
            "POSITION": 0,
            "TANGENT": 2,
            "TEXCOORD_0": 3
          },
          "indices": 4,
          "material": 3,
          "mode": 4
        }
      ]
    },
    {
      "name": "defaultMaterial",
      "primitives": [
        {
          "attributes": {
            "NORMAL": 6,
            "POSITION": 5,
            "TANGENT": 7,
            "TEXCOORD_0": 8
          },
          "indices": 9,
          "material": 2,
          "mode": 4
        }
      ]
    },
    {
      "name": "defaultMaterial",
      "primitives": [
        {
          "attributes": {
            "NORMAL": 11,
            "POSITION": 10,
            "TANGENT": 12,
            "TEXCOORD_0": 13
          },
          "indices": 14,
          "material": 3,
          "mode": 4
        }
      ]
    },
    {
      "name": "defaultMaterial",
      "primitives": [
        {
          "attributes": {
            "NORMAL": 16,
            "POSITION": 15,
            "TANGENT": 17,
            "TEXCOORD_0": 18
          },
          "indices": 19,
          "material": 0,
          "mode": 4
        }
      ]
    },
    {
      "name": "defaultMaterial",
      "primitives": [
        {
          "attributes": {
            "NORMAL": 21,
            "POSITION": 20,
            "TANGENT": 22,
            "TEXCOORD_0": 23
          },
          "indices": 24,
          "material": 2,
          "mode": 4
        }
      ]
    },
    {
      "name": "defaultMaterial",
      "primitives": [
        {
          "attributes": {
            "NORMAL": 26,
            "POSITION": 25,
            "TANGENT": 27,
            "TEXCOORD_0": 28
          },
          "indices": 29,
          "material": 0,
          "mode": 4
        }
      ]
    },
    {
      "name": "defaultMaterial",
      "primitives": [
        {
          "attributes": {
            "NORMAL": 31,
            "POSITION": 30,
            "TANGENT": 32,
            "TEXCOORD_0": 33
          },
          "indices": 34,
          "material": 1,
          "mode": 4
        }
      ]
    }
  ],
  "nodes": [
    {
      "children": [
        1
      ],
      "matrix": [
        1.0,
        0.0,
        0.0,
        0.0,
        0.0,
        2.220446049250313e-16,
        -1.0,
        0.0,
        0.0,
        1.0,
        2.220446049250313e-16,
        0.0,
        0.0,
        0.0,
        0.0,
        1.0
      ],
      "name": "Sketchfab_model"
    },
    {
      "children": [
        2,
        4,
        8,
        10
      ],
      "matrix": [
        1.0,
        0.0,
        0.0,
        0.0,
        0.0,
        -4.371139006309477e-08,
        0.999999999999999,
        0.0,
        0.0,
        -0.999999999999999,
        -4.371139006309477e-08,
        0.0,
        0.0,
        0.0,
        0.0,
        1.0
      ],
      "name": "Collada visual scene group"
    },
    {
      "children": [
        3
      ],
      "name": "g"
    },
    {
      "mesh": 0,
      "name": "defaultMaterial"
    },
    {
      "children": [
        5,
        6,
        7
      ],
      "name": "g"
    },
    {
      "mesh": 1,
      "name": "defaultMaterial"
    },
    {
      "mesh": 2,
      "name": "defaultMaterial"
    },
    {
      "mesh": 3,
      "name": "defaultMaterial"
    },
    {
      "children": [
        9
      ],
      "name": "g"
    },
    {
      "mesh": 4,
      "name": "defaultMaterial"
    },
    {
      "children": [
        11,
        12
      ],
      "name": "g"
    },
    {
      "mesh": 5,
      "name": "defaultMaterial"
    },
    {
      "mesh": 6,
      "name": "defaultMaterial"
    }
  ],
  "samplers": [
    {
      "magFilter": 9729,
      "minFilter": 9987,
      "wrapS": 10497,
      "wrapT": 10497
    }
  ],
  "scene": 0,
  "scenes": [
    {
      "name": "Sketchfab_Scene",
      "nodes": [
        0
      ]
    }
  ],
  "textures": [
    {
      "sampler": 0,
      "source": 0
    },
    {
      "sampler": 0,
      "source": 1
    },
    {
      "sampler": 0,
      "source": 2
    },
    {
      "sampler": 0,
      "source": 3
    },
    {
      "sampler": 0,
      "source": 4
    },
    {
      "sampler": 0,
      "source": 5
    },
    {
      "sampler": 0,
      "source": 6
    },
    {
      "sampler": 0,
      "source": 7
    },
    {
      "sampler": 0,
      "source": 8
    },
    {
      "sampler": 0,
      "source": 9
    },
    {
      "sampler": 0,
      "source": 10
    },
    {
      "sampler": 0,
      "source": 11
    }
  ]
}
