{
  "accessors": [
    {
      "bufferView": 2,
      "componentType": 5126,
      "count": 6046,
      "max": [
        1.5894759893417358,
        6.9167938232421875,
        3.0675599575042725
      ],
      "min": [
        -3.5894761085510254,
        -2.5418999195098877,
        -15.27238655090332
      ],
      "type": "VEC3"
    },
    {
      "bufferView": 2,
      "byteOffset": 72552,
      "componentType": 5126,
      "count": 6046,
      "max": [
        1.0,
        1.0,
        1.0
      ],
      "min": [
        -1.0,
        -1.0,
        -1.0
      ],
      "type": "VEC3"
    },
    {
      "bufferView": 3,
      "componentType": 5126,
      "count": 6046,
      "max": [
        1.0,
        1.0,
        1.0,
        1.0
      ],
      "min": [
        -1.0,
        -1.0,
        -1.0,
        1.0
      ],
      "type": "VEC4"
    },
    {
      "bufferView": 1,
      "componentType": 5126,
      "count": 6046,
      "max": [
        0.9998149871826172,
        1.0
      ],
      "min": [
        0.0,
        0.0
      ],
      "type": "VEC2"
    },
    {
      "bufferView": 0,
      "componentType": 5125,
      "count": 25179,
      "type": "SCALAR"
    },
    {
      "bufferView": 2,
      "byteOffset": 145104,
      "componentType": 5126,
      "count": 3997,
      "max": [
        1.5935349464416504,
        6.507176876068115,
        17.970914840698242
      ],
      "min": [
        -3.5935349464416504,
        2.2468669414520264,
        -1.8104219436645508
      ],
      "type": "VEC3"
    },
    {
      "bufferView": 2,
      "byteOffset": 193068,
      "componentType": 5126,
      "count": 3997,
      "max": [
        1.0,
        1.0,
        1.0
      ],
      "min": [
        -1.0,
        -1.0,
        -1.0
      ],
      "type": "VEC3"
    },
    {
      "bufferView": 3,
      "byteOffset": 96736,
      "componentType": 5126,
      "count": 3997,
      "max": [
        1.0,
        1.0,
        1.0,
        1.0
      ],
      "min": [
        -1.0,
        -1.0,
        -1.0,
        -1.0
      ],
      "type": "VEC4"
    },
    {
      "bufferView": 1,
      "byteOffset": 48368,
      "componentType": 5126,
      "count": 3997,
      "max": [
        0.9912369847297668,
        0.9962970018386841
      ],
      "min": [
        0.0,
        0.0
      ],
      "type": "VEC2"
    },
    {
      "bufferView": 0,
      "byteOffset": 100716,
      "componentType": 5125,
      "count": 14400,
      "type": "SCALAR"
    }
  ],
  "asset": {
    "extras": {
      "author": "h1ggs (https://sketchfab.com/h1ggs)",
      "license": "CC-BY-4.0 (http://creativecommons.org/licenses/by/4.0/)",
      "source": "https://sketchfab.com/3d-models/antique-double-shotgun-f6b80bb54c5541fe91b807b3b050d366",
      "title": "Antique Double-Shotgun"
    },
    "generator": "Sketchfab-12.67.0",
    "version": "2.0"
  },
  "bufferViews": [
    {
      "buffer": 0,
      "byteLength": 158316,
      "name": "floatBufferViews",
      "target": 34963
    },
    {
      "buffer": 0,
      "byteLength": 80344,
      "byteOffset": 158316,
      "byteStride": 8,
      "name": "floatBufferViews",
      "target": 34962
    },
    {
      "buffer": 0,
      "byteLength": 241032,
      "byteOffset": 238660,
      "byteStride": 12,
      "name": "floatBufferViews",
      "target": 34962
    },
    {
      "buffer": 0,
      "byteLength": 160688,
      "byteOffset": 479692,
      "byteStride": 16,
      "name": "floatBufferViews",
      "target": 34962
    }
  ],
  "buffers": [
    {
      "byteLength": 640380,
      "uri": "scene.bin"
    }
  ],
  "images": [
    {
      "uri": "textures/dbshotty_baseColor.jpeg"
    },
    {
      "uri": "textures/dbshotty_metallicRoughness.png"
    },
    {
      "uri": "textures/dbshotty_normal.png"
    }
  ],
  "materials": [
    {
      "doubleSided": true,
      "name": "dbshotty",
      "normalTexture": {
        "index": 2
      },
      "occlusionTexture": {
        "index": 1
      },
      "pbrMetallicRoughness": {
        "baseColorFactor": [
          0.7860523867719753,
          0.7860523867719753,
          0.7860523867719753,
          1.0
        ],
        "baseColorTexture": {
          "index": 0
        },
        "metallicRoughnessTexture": {
          "index": 1
        }
      }
    }
  ],
  "meshes": [
    {
      "name": "defaultMaterial",
      "primitives": [
        {
          "attributes": {
            "NORMAL": 1,
            "POSITION": 0,
            "TANGENT": 2,
            "TEXCOORD_0": 3
          },
          "indices": 4,
          "material": 0,
          "mode": 4
        }
      ]
    },
    {
      "name": "defaultMaterial",
      "primitives": [
        {
          "attributes": {
            "NORMAL": 6,
            "POSITION": 5,
            "TANGENT": 7,
            "TEXCOORD_0": 8
          },
          "indices": 9,
          "material": 0,
          "mode": 4
        }
      ]
    }
  ],
  "nodes": [
    {
      "children": [
        1
      ],
      "matrix": [
        1.0,
        0.0,
        0.0,
        0.0,
        0.0,
        -0.37615033984184243,
        -0.9265586137771608,
        0.0,
        0.0,
        0.9265586137771608,
        -0.37615033984184243,
        0.0,
        0.0,
        -0.3468732237815859,
        0.9218986630439757,
        1.0
      ],
      "name": "Sketchfab_model"
    },
    {
      "children": [
        2
      ],
      "matrix": [
        1.0,
        0.0,
        0.0,
        0.0,
        0.0,
        -4.371139006309477e-08,
        0.999999999999999,
        0.0,
        0.0,
        -0.999999999999999,
        -4.371139006309477e-08,
        0.0,
        0.0,
        0.0,
        0.0,
        1.0
      ],
      "name": "Collada visual scene group"
    },
    {
      "children": [
        3,
        5
      ],
      "name": "shotgun_low"
    },
    {
      "children": [
        4
      ],
      "name": "handle_low"
    },
    {
      "mesh": 0,
      "name": "defaultMaterial"
    },
    {
      "children": [
        6
      ],
      "name": "barrel_low"
    },
    {
      "mesh": 1,
      "name": "defaultMaterial"
    }
  ],
  "samplers": [
    {
      "magFilter": 9729,
      "minFilter": 9987,
      "wrapS": 10497,
      "wrapT": 10497
    }
  ],
  "scene": 0,
  "scenes": [
    {
      "name": "Sketchfab_Scene",
      "nodes": [
        0
      ]
    }
  ],
  "textures": [
    {
      "sampler": 0,
      "source": 0
    },
    {
      "sampler": 0,
      "source": 1
    },
    {
      "sampler": 0,
      "source": 2
    }
  ]
}
