{
  "accessors": [
    {
      "bufferView": 2,
      "componentType": 5126,
      "count": 9202,
      "max": [
        2.6824228763580322,
        2.833867311477661,
        0.9609395265579224
      ],
      "min": [
        -2.558833122253418,
        -1.4803413152694702,
        -0.007845878601074219
      ],
      "type": "VEC3"
    },
    {
      "bufferView": 2,
      "byteOffset": 110424,
      "componentType": 5126,
      "count": 9202,
      "max": [
        1.0,
        1.0,
        1.0
      ],
      "min": [
        -1.0,
        -1.0,
        -1.0
      ],
      "type": "VEC3"
    },
    {
      "bufferView": 3,
      "componentType": 5126,
      "count": 9202,
      "max": [
        1.0,
        1.0,
        1.0,
        1.0
      ],
      "min": [
        -1.0,
        -1.0,
        -1.0,
        -1.0
      ],
      "type": "VEC4"
    },
    {
      "bufferView": 1,
      "componentType": 5126,
      "count": 9202,
      "max": [
        0.9995976686477661,
        0.9939000606536865
      ],
      "min": [
        0.00035874932655133307,
        0.00035979185486212373
      ],
      "type": "VEC2"
    },
    {
      "bufferView": 1,
      "byteOffset": 73616,
      "componentType": 5126,
      "count": 9202,
      "max": [
        0.9995976686477661,
        0.9939000606536865
      ],
      "min": [
        0.00035874932655133307,
        0.00035979185486212373
      ],
      "type": "VEC2"
    },
    {
      "bufferView": 1,
      "byteOffset": 147232,
      "componentType": 5126,
      "count": 9202,
      "max": [
        0.9995976686477661,
        0.9939000606536865
      ],
      "min": [
        0.00035874932655133307,
        0.00035979185486212373
      ],
      "type": "VEC2"
    },
    {
      "bufferView": 0,
      "componentType": 5125,
      "count": 41520,
      "type": "SCALAR"
    }
  ],
  "asset": {
    "extras": {
      "author": "VR.Space (https://sketchfab.com/vrspace01)",
      "license": "CC-BY-4.0 (http://creativecommons.org/licenses/by/4.0/)",
      "source": "https://sketchfab.com/3d-models/large-leather-and-fabric-sectional-couch-80c634dec19d489e8f94d0cd3ae94a4c",
      "title": "Large Leather and Fabric Sectional Couch"
    },
    "generator": "Sketchfab-12.68.0",
    "version": "2.0"
  },
  "bufferViews": [
    {
      "buffer": 0,
      "byteLength": 166080,
      "name": "floatBufferViews",
      "target": 34963
    },
    {
      "buffer": 0,
      "byteLength": 220848,
      "byteOffset": 166080,
      "byteStride": 8,
      "name": "floatBufferViews",
      "target": 34962
    },
    {
      "buffer": 0,
      "byteLength": 220848,
      "byteOffset": 386928,
      "byteStride": 12,
      "name": "floatBufferViews",
      "target": 34962
    },
    {
      "buffer": 0,
      "byteLength": 147232,
      "byteOffset": 607776,
      "byteStride": 16,
      "name": "floatBufferViews",
      "target": 34962
    }
  ],
  "buffers": [
    {
      "byteLength": 755008,
      "uri": "scene.bin"
    }
  ],
  "images": [
    {
      "uri": "textures/L_Couch_baseColor.png"
    },
    {
      "uri": "textures/L_Couch_metallicRoughness.png"
    },
    {
      "uri": "textures/L_Couch_normal.png"
    }
  ],
  "materials": [
    {
      "doubleSided": true,
      "name": "L_Couch",
      "normalTexture": {
        "index": 2
      },
      "pbrMetallicRoughness": {
        "baseColorTexture": {
          "index": 0
        },
        "metallicFactor": 0.0,
        "metallicRoughnessTexture": {
          "index": 1
        }
      }
    }
  ],
  "meshes": [
    {
      "name": "L couch Low Poly_L Couch_0",
      "primitives": [
        {
          "attributes": {
            "NORMAL": 1,
            "POSITION": 0,
            "TANGENT": 2,
            "TEXCOORD_0": 3,
            "TEXCOORD_1": 4,
            "TEXCOORD_2": 5
          },
          "indices": 6,
          "material": 0,
          "mode": 4
        }
      ]
    }
  ],
  "nodes": [
    {
      "children": [
        1
      ],
      "matrix": [
        1.0,
        0.0,
        0.0,
        0.0,
        0.0,
        2.220446049250313e-16,
        -1.0,
        0.0,
        0.0,
        1.0,
        2.220446049250313e-16,
        0.0,
        0.0,
        0.0,
        0.0,
        1.0
      ],
      "name": "Sketchfab_model"
    },
    {
      "children": [
        2
      ],
      "matrix": [
        0.009999999776482582,
        0.0,
        0.0,
        0.0,
        0.0,
        0.0,
        0.009999999776482582,
        0.0,
        0.0,
        -0.009999999776482582,
        0.0,
        0.0,
        0.0,
        0.0,
        0.0,
        1.0
      ],
      "name": "L_couch01.fbx"
    },
    {
      "children": [
        3
      ],
      "name": "RootNode"
    },
    {
      "children": [
        4
      ],
      "matrix": [
        100.0,
        0.0,
        0.0,
        0.0,
        0.0,
        -1.629206793918314e-05,
        -99.99999999999868,
        0.0,
        0.0,
        99.99999999999868,
        -1.629206793918314e-05,
        0.0,
        0.0,
        0.0,
        0.0,
        1.0
      ],
      "name": "L couch Low Poly"
    },
    {
      "mesh": 0,
      "name": "L couch Low Poly_L Couch_0"
    }
  ],
  "samplers": [
    {
      "magFilter": 9729,
      "minFilter": 9987,
      "wrapS": 10497,
      "wrapT": 10497
    }
  ],
  "scene": 0,
  "scenes": [
    {
      "name": "Sketchfab_Scene",
      "nodes": [
        0
      ]
    }
  ],
  "textures": [
    {
      "sampler": 0,
      "source": 0
    },
    {
      "sampler": 0,
      "source": 1
    },
    {
      "sampler": 0,
      "source": 2
    }
  ]
}
