{
  "accessors": [
    {
      "bufferView": 2,
      "componentType": 5126,
      "count": 29897,
      "max": [
        0.8397700190544128,
        16.878219604492188,
        2.0519909858703613
      ],
      "min": [
        -2.1907150745391846,
        9.863452911376953,
        -1.3401800394058228
      ],
      "type": "VEC3"
    },
    {
      "bufferView": 2,
      "byteOffset": 358764,
      "componentType": 5126,
      "count": 29897,
      "max": [
        0.9999318718910217,
        0.9999927878379822,
        0.9999710917472839
      ],
      "min": [
        -0.9998897910118103,
        -0.9999756217002869,
        -0.9999659061431885
      ],
      "type": "VEC3"
    },
    {
      "bufferView": 1,
      "componentType": 5126,
      "count": 29897,
      "max": [
        0.9948440194129944,
        0.9999600052833557
      ],
      "min": [
        0.0,
        0.0
      ],
      "type": "VEC2"
    },
    {
      "bufferView": 0,
      "componentType": 5125,
      "count": 149706,
      "type": "SCALAR"
    }
  ],
  "asset": {
    "extras": {
      "author": "learly (https://sketchfab.com/learly)",
      "license": "CC-BY-4.0 (http://creativecommons.org/licenses/by/4.0/)",
      "source": "https://sketchfab.com/3d-models/antique-piano-stool-with-crystal-claw-feet-8ab0baf0f68f42788285e4f952c454ba",
      "title": "Antique piano stool with crystal claw feet"
    },
    "generator": "Sketchfab-12.67.0",
    "version": "2.0"
  },
  "bufferViews": [
    {
      "buffer": 0,
      "byteLength": 598824,
      "name": "floatBufferViews",
      "target": 34963
    },
    {
      "buffer": 0,
      "byteLength": 239176,
      "byteOffset": 598824,
      "byteStride": 8,
      "name": "floatBufferViews",
      "target": 34962
    },
    {
      "buffer": 0,
      "byteLength": 717528,
      "byteOffset": 838000,
      "byteStride": 12,
      "name": "floatBufferViews",
      "target": 34962
    }
  ],
  "buffers": [
    {
      "byteLength": 1555528,
      "uri": "scene.bin"
    }
  ],
  "images": [
    {
      "uri": "textures/pianostool.1001_baseColor.jpeg"
    }
  ],
  "materials": [
    {
      "doubleSided": true,
      "name": "pianostool.1001",
      "pbrMetallicRoughness": {
        "baseColorTexture": {
          "index": 0
        },
        "metallicFactor": 0.0,
        "roughnessFactor": 0.8172217014307512
      }
    }
  ],
  "meshes": [
    {
      "name": "Object_0",
      "primitives": [
        {
          "attributes": {
            "NORMAL": 1,
            "POSITION": 0,
            "TEXCOORD_0": 2
          },
          "indices": 3,
          "material": 0,
          "mode": 4
        }
      ]
    }
  ],
  "nodes": [
    {
      "children": [
        1
      ],
      "matrix": [
        0.8478021621704102,
        0.005709539633244394,
        -0.5302819013595581,
        0.0,
        0.09455810487270355,
        -0.9855455160140991,
        0.14056590199470498,
        0.0,
        -0.5218144059181213,
        -0.16931451857089977,
        -0.8360875248908997,
        0.0,
        -1.1814099550247192,
        13.597583770751957,
        -15.310937881469723,
        1.0
      ],
      "name": "Sketchfab_model"
    },
    {
      "children": [
        2
      ],
      "name": "pianostool.obj.cleaner.materialmerger.gles"
    },
    {
      "mesh": 0,
      "name": "Object_2"
    }
  ],
  "samplers": [
    {
      "magFilter": 9729,
      "minFilter": 9987,
      "wrapS": 10497,
      "wrapT": 10497
    }
  ],
  "scene": 0,
  "scenes": [
    {
      "name": "Sketchfab_Scene",
      "nodes": [
        0
      ]
    }
  ],
  "textures": [
    {
      "sampler": 0,
      "source": 0
    }
  ]
}
