{
  "accessors": [
    {
      "bufferView": 2,
      "componentType": 5126,
      "count": 2614,
      "max": [
        38.1834716796875,
        16.66666603088379,
        6.755193453500397e-07
      ],
      "min": [
        -104.85014343261719,
        -24.84148406982422,
        -39.99999237060547
      ],
      "type": "VEC3"
    },
    {
      "bufferView": 2,
      "byteOffset": 31368,
      "componentType": 5126,
      "count": 2614,
      "max": [
        1.0,
        1.0,
        1.0
      ],
      "min": [
        -1.0,
        -1.0,
        -1.0
      ],
      "type": "VEC3"
    },
    {
      "bufferView": 3,
      "componentType": 5126,
      "count": 2614,
      "max": [
        1.0,
        1.0,
        1.0,
        1.0
      ],
      "min": [
        -1.0,
        -1.0,
        -1.0,
        -1.0
      ],
      "type": "VEC4"
    },
    {
      "bufferView": 1,
      "componentType": 5126,
      "count": 2614,
      "max": [
        2.4161453247070313,
        0.9784285426139832
      ],
      "min": [
        -1.857458472251892,
        -1.563291311264038
      ],
      "type": "VEC2"
    },
    {
      "bufferView": 0,
      "componentType": 5125,
      "count": 8847,
      "type": "SCALAR"
    },
    {
      "bufferView": 2,
      "byteOffset": 62736,
      "componentType": 5126,
      "count": 872,
      "max": [
        17.39812469482422,
        7.694393634796143,
        26.300519943237305
      ],
      "min": [
        -7.694393157958984,
        -22.359867095947266,
        -20.0
      ],
      "type": "VEC3"
    },
    {
      "bufferView": 2,
      "byteOffset": 73200,
      "componentType": 5126,
      "count": 872,
      "max": [
        0.9645143747329712,
        0.9867518544197083,
        1.0
      ],
      "min": [
        -0.9645145535469055,
        -0.9846523404121399,
        -1.0
      ],
      "type": "VEC3"
    },
    {
      "bufferView": 3,
      "byteOffset": 41824,
      "componentType": 5126,
      "count": 872,
      "max": [
        1.0,
        1.0,
        0.9964545369148254,
        1.0
      ],
      "min": [
        -1.0,
        -0.9596660137176514,
        -0.9975653886795044,
        -1.0
      ],
      "type": "VEC4"
    },
    {
      "bufferView": 1,
      "byteOffset": 20912,
      "componentType": 5126,
      "count": 872,
      "max": [
        0.9895350933074951,
        2.18748140335083
      ],
      "min": [
        -1.9478094577789307,
        0.012409687042236328
      ],
      "type": "VEC2"
    },
    {
      "bufferView": 1,
      "byteOffset": 27888,
      "componentType": 5126,
      "count": 872,
      "max": [
        0.9895350933074951,
        2.18748140335083
      ],
      "min": [
        -1.9478094577789307,
        0.012409687042236328
      ],
      "type": "VEC2"
    },
    {
      "bufferView": 0,
      "byteOffset": 35388,
      "componentType": 5125,
      "count": 3648,
      "type": "SCALAR"
    },
    {
      "bufferView": 2,
      "byteOffset": 83664,
      "componentType": 5126,
      "count": 872,
      "max": [
        17.39812469482422,
        7.694393634796143,
        26.300519943237305
      ],
      "min": [
        -7.694393157958984,
        -22.359867095947266,
        -20.0
      ],
      "type": "VEC3"
    },
    {
      "bufferView": 2,
      "byteOffset": 94128,
      "componentType": 5126,
      "count": 872,
      "max": [
        0.9645143747329712,
        0.9867518544197083,
        1.0
      ],
      "min": [
        -0.9645145535469055,
        -0.9846523404121399,
        -1.0
      ],
      "type": "VEC3"
    },
    {
      "bufferView": 3,
      "byteOffset": 55776,
      "componentType": 5126,
      "count": 872,
      "max": [
        1.0,
        1.0,
        0.9964545369148254,
        1.0
      ],
      "min": [
        -1.0,
        -0.9596660137176514,
        -0.9975653886795044,
        -1.0
      ],
      "type": "VEC4"
    },
    {
      "bufferView": 1,
      "byteOffset": 34864,
      "componentType": 5126,
      "count": 872,
      "max": [
        0.9895350933074951,
        2.18748140335083
      ],
      "min": [
        -1.9478094577789307,
        0.012409687042236328
      ],
      "type": "VEC2"
    },
    {
      "bufferView": 1,
      "byteOffset": 41840,
      "componentType": 5126,
      "count": 872,
      "max": [
        0.9895350933074951,
        2.18748140335083
      ],
      "min": [
        -1.9478094577789307,
        0.012409687042236328
      ],
      "type": "VEC2"
    },
    {
      "bufferView": 0,
      "byteOffset": 49980,
      "componentType": 5125,
      "count": 3648,
      "type": "SCALAR"
    }
  ],
  "asset": {
    "extras": {
      "author": "kEam (https://sketchfab.com/kEamDesign)",
      "license": "CC-BY-4.0 (http://creativecommons.org/licenses/by/4.0/)",
      "source": "https://sketchfab.com/3d-models/modern-table-set-f79bd9bdfecb4bf6be29b05218532653",
      "title": "Modern Table Set"
    },
    "generator": "Sketchfab-12.67.0",
    "version": "2.0"
  },
  "bufferViews": [
    {
      "buffer": 0,
      "byteLength": 64572,
      "name": "floatBufferViews",
      "target": 34963
    },
    {
      "buffer": 0,
      "byteLength": 48816,
      "byteOffset": 64572,
      "byteStride": 8,
      "name": "floatBufferViews",
      "target": 34962
    },
    {
      "buffer": 0,
      "byteLength": 104592,
      "byteOffset": 113388,
      "byteStride": 12,
      "name": "floatBufferViews",
      "target": 34962
    },
    {
      "buffer": 0,
      "byteLength": 69728,
      "byteOffset": 217980,
      "byteStride": 16,
      "name": "floatBufferViews",
      "target": 34962
    }
  ],
  "buffers": [
    {
      "byteLength": 287708,
      "uri": "scene.bin"
    }
  ],
  "images": [
    {
      "uri": "textures/Material_25_baseColor.jpeg"
    },
    {
      "uri": "textures/Material_25_metallicRoughness.png"
    },
    {
      "uri": "textures/Material_25_normal.png"
    },
    {
      "uri": "textures/Material_26_baseColor.png"
    },
    {
      "uri": "textures/Material_26_metallicRoughness.png"
    },
    {
      "uri": "textures/Material_26_normal.png"
    }
  ],
  "materials": [
    {
      "doubleSided": true,
      "name": "Material_25",
      "normalTexture": {
        "index": 2
      },
      "pbrMetallicRoughness": {
        "baseColorTexture": {
          "index": 0
        },
        "metallicRoughnessTexture": {
          "index": 1
        }
      }
    },
    {
      "doubleSided": true,
      "name": "Material_26",
      "normalTexture": {
        "index": 5
      },
      "pbrMetallicRoughness": {
        "baseColorTexture": {
          "index": 3
        },
        "metallicRoughnessTexture": {
          "index": 4
        }
      }
    }
  ],
  "meshes": [
    {
      "name": "Line001_Material #25_0",
      "primitives": [
        {
          "attributes": {
            "NORMAL": 1,
            "POSITION": 0,
            "TANGENT": 2,
            "TEXCOORD_0": 3
          },
          "indices": 4,
          "material": 0,
          "mode": 4
        }
      ]
    },
    {
      "name": "Box001_Material #26_0",
      "primitives": [
        {
          "attributes": {
            "NORMAL": 6,
            "POSITION": 5,
            "TANGENT": 7,
            "TEXCOORD_0": 8,
            "TEXCOORD_1": 9
          },
          "indices": 10,
          "material": 1,
          "mode": 4
        }
      ]
    },
    {
      "name": "Box002_Material #26_0",
      "primitives": [
        {
          "attributes": {
            "NORMAL": 12,
            "POSITION": 11,
            "TANGENT": 13,
            "TEXCOORD_0": 14,
            "TEXCOORD_1": 15
          },
          "indices": 16,
          "material": 1,
          "mode": 4
        }
      ]
    }
  ],
  "nodes": [
    {
      "children": [
        1
      ],
      "matrix": [
        1.0,
        0.0,
        0.0,
        0.0,
        0.0,
        2.220446049250313e-16,
        -1.0,
        0.0,
        0.0,
        1.0,
        2.220446049250313e-16,
        0.0,
        0.0,
        0.0,
        0.0,
        1.0
      ],
      "name": "Sketchfab_model"
    },
    {
      "children": [
        2
      ],
      "matrix": [
        0.02539999969303608,
        0.0,
        0.0,
        0.0,
        0.0,
        0.0,
        0.02539999969303608,
        0.0,
        0.0,
        -0.02539999969303608,
        0.0,
        0.0,
        0.0,
        0.0,
        0.0,
        1.0
      ],
      "name": "7d43e2ebc3bc40648ffed476f65d3ece.fbx"
    },
    {
      "children": [
        3,
        6,
        9
      ],
      "name": "RootNode"
    },
    {
      "children": [
        4
      ],
      "matrix": [
        1.0,
        0.0,
        0.0,
        0.0,
        0.0,
        0.9999999999999867,
        1.6292068494294582e-07,
        0.0,
        0.0,
        -1.6292068494294582e-07,
        0.9999999999999867,
        0.0,
        0.0,
        0.0,
        0.0,
        1.0
      ],
      "name": "Line001"
    },
    {
      "children": [
        5
      ],
      "matrix": [
        1.0,
        0.0,
        -0.0,
        0.0,
        0.0,
        1.0,
        0.0,
        0.0,
        0.0,
        0.0,
        1.0,
        0.0,
        33.333335876464844,
        23.333337783813477,
        19.999996185302734,
        1.0
      ],
      "name": "Object_4"
    },
    {
      "mesh": 0,
      "name": "Line001_Material #25_0"
    },
    {
      "children": [
        7
      ],
      "matrix": [
        0.91362484660802,
        0.0,
        -0.40655828568665514,
        0.0,
        -0.40655828568665514,
        0.0,
        -0.9136248466080201,
        0.0,
        0.0,
        1.0,
        0.0,
        0.0,
        14.587234497070313,
        20.0,
        22.135177612304688,
        1.0
      ],
      "name": "Box001"
    },
    {
      "children": [
        8
      ],
      "matrix": [
        1.0,
        0.0,
        -0.0,
        0.0,
        0.0,
        1.0,
        0.0,
        0.0,
        0.0,
        0.0,
        1.0,
        0.0,
        -4.851865768432617,
        5.105006694793701,
        0.0,
        1.0
      ],
      "name": "Object_7"
    },
    {
      "mesh": 1,
      "name": "Box001_Material #26_0"
    },
    {
      "children": [
        10
      ],
      "matrix": [
        1.0,
        0.0,
        0.0,
        0.0,
        0.0,
        2.220446049250313e-16,
        -1.0,
        0.0,
        0.0,
        1.0,
        2.220446049250313e-16,
        0.0,
        -18.0,
        20.0,
        15.0,
        1.0
      ],
      "name": "Box002"
    },
    {
      "children": [
        11
      ],
      "matrix": [
        1.0,
        0.0,
        -0.0,
        0.0,
        0.0,
        1.0,
        0.0,
        0.0,
        0.0,
        0.0,
        1.0,
        0.0,
        -4.851865768432617,
        5.105006694793701,
        0.0,
        1.0
      ],
      "name": "Object_10"
    },
    {
      "mesh": 2,
      "name": "Box002_Material #26_0"
    }
  ],
  "samplers": [
    {
      "magFilter": 9729,
      "minFilter": 9987,
      "wrapS": 10497,
      "wrapT": 10497
    }
  ],
  "scene": 0,
  "scenes": [
    {
      "name": "Sketchfab_Scene",
      "nodes": [
        0
      ]
    }
  ],
  "textures": [
    {
      "sampler": 0,
      "source": 0
    },
    {
      "sampler": 0,
      "source": 1
    },
    {
      "sampler": 0,
      "source": 2
    },
    {
      "sampler": 0,
      "source": 3
    },
    {
      "sampler": 0,
      "source": 4
    },
    {
      "sampler": 0,
      "source": 5
    }
  ]
}
