{
  "accessors": [
    {
      "bufferView": 2,
      "componentType": 5126,
      "count": 2816,
      "max": [
        0.93096524477005,
        0.004000000189989805,
        0.5020641684532166
      ],
      "min": [
        -0.9650861024856567,
        0.0,
        -0.5007871985435486
      ],
      "type": "VEC3"
    },
    {
      "bufferView": 2,
      "byteOffset": 33792,
      "componentType": 5126,
      "count": 2816,
      "max": [
        1.0,
        1.0,
        1.0
      ],
      "min": [
        -0.999979555606842,
        -1.0,
        -1.0
      ],
      "type": "VEC3"
    },
    {
      "bufferView": 1,
      "componentType": 5126,
      "count": 2816,
      "max": [
        0.9911521673202515,
        0.989261269569397
      ],
      "min": [
        0.025842756032943726,
        0.02832053042948246
      ],
      "type": "VEC2"
    },
    {
      "bufferView": 1,
      "byteOffset": 22528,
      "componentType": 5126,
      "count": 2816,
      "max": [
        0.9911521673202515,
        0.989261269569397
      ],
      "min": [
        0.025842756032943726,
        0.02832053042948246
      ],
      "type": "VEC2"
    },
    {
      "bufferView": 0,
      "componentType": 5125,
      "count": 4764,
      "type": "SCALAR"
    },
    {
      "bufferView": 2,
      "byteOffset": 67584,
      "componentType": 5126,
      "count": 65532,
      "max": [
        0.09377941489219666,
        0.005716165527701378,
        0.9403542280197144
      ],
      "min": [
        -0.037470828741788864,
        -0.007705262862145901,
        -0.9301988482475281
      ],
      "type": "VEC3"
    },
    {
      "bufferView": 2,
      "byteOffset": 853968,
      "componentType": 5126,
      "count": 65532,
      "max": [
        0.999828577041626,
        0.9999974966049194,
        0.9999910593032837
      ],
      "min": [
        -0.9997619390487671,
        -0.9999938011169434,
        -0.9999548196792603
      ],
      "type": "VEC3"
    },
    {
      "bufferView": 1,
      "byteOffset": 45056,
      "componentType": 5126,
      "count": 65532,
      "max": [
        0.10000000149011612,
        0.09999990463256836
      ],
      "min": [
        0.0,
        0.0
      ],
      "type": "VEC2"
    },
    {
      "bufferView": 0,
      "byteOffset": 19056,
      "componentType": 5125,
      "count": 378795,
      "type": "SCALAR"
    },
    {
      "bufferView": 2,
      "byteOffset": 1640352,
      "componentType": 5126,
      "count": 65532,
      "max": [
        0.0935596153140068,
        0.006157800555229187,
        0.9375321865081787
      ],
      "min": [
        -0.03778673708438873,
        -0.007117640692740679,
        -0.9400196075439453
      ],
      "type": "VEC3"
    },
    {
      "bufferView": 2,
      "byteOffset": 2426736,
      "componentType": 5126,
      "count": 65532,
      "max": [
        0.9998492002487183,
        0.9999994039535522,
        0.9999961853027344
      ],
      "min": [
        -0.9999170303344727,
        -0.9999947547912598,
        -0.9999319314956665
      ],
      "type": "VEC3"
    },
    {
      "bufferView": 1,
      "byteOffset": 569312,
      "componentType": 5126,
      "count": 65532,
      "max": [
        0.10000000149011612,
        0.09999990463256836
      ],
      "min": [
        0.0,
        0.0
      ],
      "type": "VEC2"
    },
    {
      "bufferView": 0,
      "byteOffset": 1534236,
      "componentType": 5125,
      "count": 380157,
      "type": "SCALAR"
    },
    {
      "bufferView": 2,
      "byteOffset": 3213120,
      "componentType": 5126,
      "count": 27969,
      "max": [
        0.09362804889678955,
        0.006046344991773367,
        0.9381992816925049
      ],
      "min": [
        -0.03778673708438873,
        -0.0071319108828902245,
        -0.936387836933136
      ],
      "type": "VEC3"
    },
    {
      "bufferView": 2,
      "byteOffset": 3548748,
      "componentType": 5126,
      "count": 27969,
      "max": [
        0.9999372959136963,
        0.9999806880950928,
        0.9999673366546631
      ],
      "min": [
        -0.9997122287750244,
        -0.9999948740005493,
        -0.999880313873291
      ],
      "type": "VEC3"
    },
    {
      "bufferView": 1,
      "byteOffset": 1093568,
      "componentType": 5126,
      "count": 27969,
      "max": [
        0.10000000149011612,
        0.09999990463256836
      ],
      "min": [
        0.0,
        0.0
      ],
      "type": "VEC2"
    },
    {
      "bufferView": 0,
      "byteOffset": 3054864,
      "componentType": 5125,
      "count": 155091,
      "type": "SCALAR"
    },
    {
      "bufferView": 2,
      "byteOffset": 3884376,
      "componentType": 5126,
      "count": 65532,
      "max": [
        0.03646000847220421,
        0.0062165530398488045,
        0.9344460368156433
      ],
      "min": [
        -0.11274442076683044,
        -0.007213410921394825,
        -0.9427359700202942
      ],
      "type": "VEC3"
    },
    {
      "bufferView": 2,
      "byteOffset": 4670760,
      "componentType": 5126,
      "count": 65532,
      "max": [
        0.9998208284378052,
        0.9999985694885254,
        0.9999890327453613
      ],
      "min": [
        -0.9999668598175049,
        -0.9999957084655762,
        -0.9999934434890747
      ],
      "type": "VEC3"
    },
    {
      "bufferView": 1,
      "byteOffset": 1317320,
      "componentType": 5126,
      "count": 65532,
      "max": [
        0.10000000149011612,
        0.09999990463256836
      ],
      "min": [
        0.0,
        0.0
      ],
      "type": "VEC2"
    },
    {
      "bufferView": 0,
      "byteOffset": 3675228,
      "componentType": 5125,
      "count": 378633,
      "type": "SCALAR"
    },
    {
      "bufferView": 2,
      "byteOffset": 5457144,
      "componentType": 5126,
      "count": 65532,
      "max": [
        0.03628353402018547,
        0.006951487623155117,
        0.9370325207710266
      ],
      "min": [
        -0.11286929249763489,
        -0.007414072751998901,
        -0.9359645843505859
      ],
      "type": "VEC3"
    },
    {
      "bufferView": 2,
      "byteOffset": 6243528,
      "componentType": 5126,
      "count": 65532,
      "max": [
        0.9999514818191528,
        0.9999995231628418,
        0.9999995231628418
      ],
      "min": [
        -0.999964714050293,
        -0.9999998807907104,
        -0.9999788999557495
      ],
      "type": "VEC3"
    },
    {
      "bufferView": 1,
      "byteOffset": 1841576,
      "componentType": 5126,
      "count": 65532,
      "max": [
        0.10000000149011612,
        0.09999990463256836
      ],
      "min": [
        0.0,
        0.0
      ],
      "type": "VEC2"
    },
    {
      "bufferView": 0,
      "byteOffset": 5189760,
      "componentType": 5125,
      "count": 380007,
      "type": "SCALAR"
    },
    {
      "bufferView": 2,
      "byteOffset": 7029912,
      "componentType": 5126,
      "count": 28062,
      "max": [
        0.03636607900261879,
        0.006082767620682716,
        0.9351050853729248
      ],
      "min": [
        -0.11296305060386658,
        -0.008001694455742836,
        -0.9422838687896729
      ],
      "type": "VEC3"
    },
    {
      "bufferView": 2,
      "byteOffset": 7366656,
      "componentType": 5126,
      "count": 28062,
      "max": [
        0.9999881982803345,
        0.9999974966049194,
        0.9998407363891602
      ],
      "min": [
        -0.9997788667678833,
        -0.9999986886978149,
        -0.9999784231185913
      ],
      "type": "VEC3"
    },
    {
      "bufferView": 1,
      "byteOffset": 2365832,
      "componentType": 5126,
      "count": 28062,
      "max": [
        0.10000000149011612,
        0.09999990463256836
      ],
      "min": [
        0.0,
        0.0
      ],
      "type": "VEC2"
    },
    {
      "bufferView": 0,
      "byteOffset": 6709788,
      "componentType": 5125,
      "count": 155481,
      "type": "SCALAR"
    }
  ],
  "asset": {
    "extras": {
      "author": "mfb64 (https://sketchfab.com/mfb64)",
      "license": "CC-BY-4.0 (http://creativecommons.org/licenses/by/4.0/)",
      "source": "https://sketchfab.com/3d-models/antique-turkish-runner-carpet-8509133148294571a5ac062a6bdf6d98",
      "title": "Antique Turkish Runner Carpet"
    },
    "generator": "Sketchfab-12.65.0",
    "version": "2.0"
  },
  "bufferViews": [
    {
      "buffer": 0,
      "byteLength": 7331712,
      "name": "floatBufferViews",
      "target": 34963
    },
    {
      "buffer": 0,
      "byteLength": 2590328,
      "byteOffset": 7331712,
      "byteStride": 8,
      "name": "floatBufferViews",
      "target": 34962
    },
    {
      "buffer": 0,
      "byteLength": 7703400,
      "byteOffset": 9922040,
      "byteStride": 12,
      "name": "floatBufferViews",
      "target": 34962
    }
  ],
  "buffers": [
    {
      "byteLength": 17625440,
      "uri": "scene.bin"
    }
  ],
  "images": [
    {
      "uri": "textures/carpet_baseColor.jpeg"
    }
  ],
  "materials": [
    {
      "doubleSided": true,
      "name": "carpet",
      "pbrMetallicRoughness": {
        "baseColorTexture": {
          "index": 0
        },
        "metallicFactor": 0.0,
        "roughnessFactor": 0.8
      }
    },
    {
      "doubleSided": true,
      "name": "VELVET-GREEN__Budapest",
      "pbrMetallicRoughness": {
        "baseColorFactor": [
          0.254527,
          0.246141,
          0.19471,
          1.0
        ],
        "metallicFactor": 0.0,
        "roughnessFactor": 0.95
      }
    }
  ],
  "meshes": [
    {
      "name": "Object_0",
      "primitives": [
        {
          "attributes": {
            "NORMAL": 1,
            "POSITION": 0,
            "TEXCOORD_0": 2,
            "TEXCOORD_1": 3
          },
          "indices": 4,
          "material": 0,
          "mode": 4
        }
      ]
    },
    {
      "name": "Object_1",
      "primitives": [
        {
          "attributes": {
            "NORMAL": 6,
            "POSITION": 5,
            "TEXCOORD_0": 7
          },
          "indices": 8,
          "material": 1,
          "mode": 4
        }
      ]
    },
    {
      "name": "Object_2",
      "primitives": [
        {
          "attributes": {
            "NORMAL": 10,
            "POSITION": 9,
            "TEXCOORD_0": 11
          },
          "indices": 12,
          "material": 1,
          "mode": 4
        }
      ]
    },
    {
      "name": "Object_3",
      "primitives": [
        {
          "attributes": {
            "NORMAL": 14,
            "POSITION": 13,
            "TEXCOORD_0": 15
          },
          "indices": 16,
          "material": 1,
          "mode": 4
        }
      ]
    },
    {
      "name": "Object_4",
      "primitives": [
        {
          "attributes": {
            "NORMAL": 18,
            "POSITION": 17,
            "TEXCOORD_0": 19
          },
          "indices": 20,
          "material": 1,
          "mode": 4
        }
      ]
    },
    {
      "name": "Object_5",
      "primitives": [
        {
          "attributes": {
            "NORMAL": 22,
            "POSITION": 21,
            "TEXCOORD_0": 23
          },
          "indices": 24,
          "material": 1,
          "mode": 4
        }
      ]
    },
    {
      "name": "Object_6",
      "primitives": [
        {
          "attributes": {
            "NORMAL": 26,
            "POSITION": 25,
            "TEXCOORD_0": 27
          },
          "indices": 28,
          "material": 1,
          "mode": 4
        }
      ]
    }
  ],
  "nodes": [
    {
      "children": [
        1
      ],
      "matrix": [
        1.0,
        0.0,
        0.0,
        0.0,
        0.0,
        2.220446049250313e-16,
        -1.0,
        0.0,
        0.0,
        1.0,
        2.220446049250313e-16,
        0.0,
        0.0,
        0.0,
        0.0,
        1.0
      ],
      "name": "Sketchfab_model"
    },
    {
      "children": [
        2
      ],
      "name": "root"
    },
    {
      "children": [
        3
      ],
      "matrix": [
        1.0,
        0.0,
        0.0,
        0.0,
        0.0,
        2.220446049250313e-16,
        1.0,
        0.0,
        0.0,
        -1.0,
        2.220446049250313e-16,
        0.0,
        0.0,
        0.0,
        0.0,
        1.0
      ],
      "name": "GLTF_SceneRootNode"
    },
    {
      "children": [
        4,
        5,
        9
      ],
      "name": "Antique Turkish Runner_2"
    },
    {
      "mesh": 0,
      "name": "Object_4"
    },
    {
      "children": [
        6,
        7,
        8
      ],
      "matrix": [
        0.5084722638130188,
        0.0,
        0.0,
        0.0,
        0.0,
        0.5084722638130188,
        0.0,
        0.0,
        0.0,
        0.0,
        0.5084722638130188,
        0.0,
        -0.9788898229598999,
        0.0010973651660606265,
        0.023005075752735138,
        1.0
      ],
      "name": "frange1_0"
    },
    {
      "mesh": 1,
      "name": "Object_6"
    },
    {
      "mesh": 2,
      "name": "Object_7"
    },
    {
      "mesh": 3,
      "name": "Object_8"
    },
    {
      "children": [
        10,
        11,
        12
      ],
      "matrix": [
        0.512498676776886,
        0.0,
        0.0,
        0.0,
        0.0,
        0.512498676776886,
        0.0,
        0.0,
        0.0,
        0.0,
        0.5217607021331787,
        0.0,
        0.9458531737327576,
        0.000709208776243031,
        0.01378686260432005,
        1.0
      ],
      "name": "frange2_1"
    },
    {
      "mesh": 4,
      "name": "Object_10"
    },
    {
      "mesh": 5,
      "name": "Object_11"
    },
    {
      "mesh": 6,
      "name": "Object_12"
    }
  ],
  "samplers": [
    {
      "magFilter": 9729,
      "minFilter": 9987,
      "wrapS": 10497,
      "wrapT": 10497
    }
  ],
  "scene": 0,
  "scenes": [
    {
      "name": "Sketchfab_Scene",
      "nodes": [
        0
      ]
    }
  ],
  "textures": [
    {
      "sampler": 0,
      "source": 0
    }
  ]
}
