{
  "accessors": [
    {
      "bufferView": 1,
      "componentType": 5126,
      "count": 13524,
      "max": [
        125.0,
        49.5,
        125.0
      ],
      "min": [
        0.0,
        3.0,
        0.0
      ],
      "type": "VEC3"
    },
    {
      "bufferView": 1,
      "byteOffset": 162288,
      "componentType": 5126,
      "count": 13524,
      "max": [
        1.0,
        1.0,
        1.0
      ],
      "min": [
        -1.0,
        -1.0,
        -1.0
      ],
      "type": "VEC3"
    },
    {
      "bufferView": 0,
      "componentType": 5125,
      "count": 14436,
      "type": "SCALAR"
    },
    {
      "bufferView": 1,
      "byteOffset": 324576,
      "componentType": 5126,
      "count": 16456,
      "max": [
        125.0,
        3.0,
        125.0
      ],
      "min": [
        0.0,
        0.0,
        7.000003814697266
      ],
      "type": "VEC3"
    },
    {
      "bufferView": 1,
      "byteOffset": 522048,
      "componentType": 5126,
      "count": 16456,
      "max": [
        1.0,
        1.0,
        1.0
      ],
      "min": [
        -1.0,
        -1.0,
        -1.0
      ],
      "type": "VEC3"
    },
    {
      "bufferView": 0,
      "byteOffset": 57744,
      "componentType": 5125,
      "count": 17220,
      "type": "SCALAR"
    },
    {
      "bufferView": 1,
      "byteOffset": 719520,
      "componentType": 5126,
      "count": 9216,
      "max": [
        125.0,
        3.0,
        125.0
      ],
      "min": [
        0.0,
        1.0,
        7.000003814697266
      ],
      "type": "VEC3"
    },
    {
      "bufferView": 1,
      "byteOffset": 830112,
      "componentType": 5126,
      "count": 9216,
      "max": [
        1.0,
        1.0,
        1.0
      ],
      "min": [
        -1.0,
        -1.0,
        -1.0
      ],
      "type": "VEC3"
    },
    {
      "bufferView": 0,
      "byteOffset": 126624,
      "componentType": 5125,
      "count": 9888,
      "type": "SCALAR"
    }
  ],
  "asset": {
    "extras": {
      "author": "Jetstorm-3D (https://sketchfab.com/Jetstorm_477)",
      "license": "CC-BY-NC-4.0 (http://creativecommons.org/licenses/by-nc/4.0/)",
      "source": "https://sketchfab.com/3d-models/modern-closet-27480ffc21cf423ba972ae00f217a524",
      "title": "Modern Closet"
    },
    "generator": "Sketchfab-12.67.0",
    "version": "2.0"
  },
  "bufferViews": [
    {
      "buffer": 0,
      "byteLength": 166176,
      "name": "floatBufferViews",
      "target": 34963
    },
    {
      "buffer": 0,
      "byteLength": 940704,
      "byteOffset": 166176,
      "byteStride": 12,
      "name": "floatBufferViews",
      "target": 34962
    }
  ],
  "buffers": [
    {
      "byteLength": 1106880,
      "uri": "scene.bin"
    }
  ],
  "materials": [
    {
      "doubleSided": true,
      "name": "default",
      "pbrMetallicRoughness": {
        "baseColorFactor": [
          0.141176,
          0.141176,
          0.141176,
          1.0
        ],
        "metallicFactor": 0.0,
        "roughnessFactor": 0.6
      }
    },
    {
      "doubleSided": true,
      "name": "default_default_1_2",
      "pbrMetallicRoughness": {
        "baseColorFactor": [
          0.152941,
          0.152941,
          0.156863,
          1.0
        ],
        "metallicFactor": 0.8,
        "roughnessFactor": 0.14
      }
    },
    {
      "doubleSided": true,
      "name": "default_default_1_3",
      "pbrMetallicRoughness": {
        "baseColorFactor": [
          0.729412,
          0.694118,
          0.576471,
          1.0
        ],
        "metallicFactor": 0.0,
        "roughnessFactor": 0.17
      }
    }
  ],
  "meshes": [
    {
      "name": "Object_0",
      "primitives": [
        {
          "attributes": {
            "NORMAL": 1,
            "POSITION": 0
          },
          "indices": 2,
          "material": 0,
          "mode": 4
        }
      ]
    },
    {
      "name": "Object_1",
      "primitives": [
        {
          "attributes": {
            "NORMAL": 4,
            "POSITION": 3
          },
          "indices": 5,
          "material": 1,
          "mode": 4
        }
      ]
    },
    {
      "name": "Object_2",
      "primitives": [
        {
          "attributes": {
            "NORMAL": 7,
            "POSITION": 6
          },
          "indices": 8,
          "material": 2,
          "mode": 4
        }
      ]
    }
  ],
  "nodes": [
    {
      "children": [
        1
      ],
      "matrix": [
        0.012075467966496944,
        0.0,
        0.0,
        0.0,
        0.0,
        2.6812925139056852e-18,
        -0.012075467966496944,
        0.0,
        0.0,
        0.012075467966496944,
        2.6812925139056852e-18,
        0.0,
        0.0,
        0.0,
        0.0,
        1.0
      ],
      "name": "Sketchfab_model"
    },
    {
      "children": [
        2,
        3,
        4
      ],
      "name": "Modern Closet.obj.cleaner.gles"
    },
    {
      "mesh": 0,
      "name": "Object_2"
    },
    {
      "mesh": 1,
      "name": "Object_3"
    },
    {
      "mesh": 2,
      "name": "Object_4"
    }
  ],
  "scene": 0,
  "scenes": [
    {
      "name": "Sketchfab_Scene",
      "nodes": [
        0
      ]
    }
  ]
}
