{
  "accessors": [
    {
      "bufferView": 2,
      "componentType": 5126,
      "count": 39992,
      "max": [
        1347.0887451171875,
        1012.4260864257813,
        1217.4150390625
      ],
      "min": [
        -2017.725341796875,
        -0.1639000028371811,
        -1482.8836669921875
      ],
      "type": "VEC3"
    },
    {
      "bufferView": 2,
      "byteOffset": 479904,
      "componentType": 5126,
      "count": 39992,
      "max": [
        1.0,
        0.9999996423721313,
        0.9999898672103882
      ],
      "min": [
        -1.0,
        -0.9999995827674866,
        -0.9999949336051941
      ],
      "type": "VEC3"
    },
    {
      "bufferView": 1,
      "componentType": 5126,
      "count": 39992,
      "max": [
        0.9962690472602844,
        0.9990234375
      ],
      "min": [
        0.0009765625,
        0.0009765625
      ],
      "type": "VEC2"
    },
    {
      "bufferView": 1,
      "byteOffset": 319936,
      "componentType": 5126,
      "count": 39992,
      "max": [
        0.9962690472602844,
        0.9990234375
      ],
      "min": [
        0.0009765625,
        0.0009765625
      ],
      "type": "VEC2"
    },
    {
      "bufferView": 1,
      "byteOffset": 639872,
      "componentType": 5126,
      "count": 39992,
      "max": [
        0.9962690472602844,
        0.9990234375
      ],
      "min": [
        0.0009765625,
        0.0009765625
      ],
      "type": "VEC2"
    },
    {
      "bufferView": 0,
      "componentType": 5125,
      "count": 146958,
      "type": "SCALAR"
    }
  ],
  "asset": {
    "extras": {
      "author": "GreenG (https://sketchfab.com/AngelNebesniy)",
      "license": "CC-BY-4.0 (http://creativecommons.org/licenses/by/4.0/)",
      "source": "https://sketchfab.com/3d-models/bed-with-lamp-b9b6f7dce9df4d719acc37b5e05a3ea3",
      "title": "Bed with lamp"
    },
    "generator": "Sketchfab-13.32.0",
    "version": "2.0"
  },
  "bufferViews": [
    {
      "buffer": 0,
      "byteLength": 587832,
      "name": "floatBufferViews",
      "target": 34963
    },
    {
      "buffer": 0,
      "byteLength": 959808,
      "byteOffset": 587832,
      "byteStride": 8,
      "name": "floatBufferViews",
      "target": 34962
    },
    {
      "buffer": 0,
      "byteLength": 959808,
      "byteOffset": 1547640,
      "byteStride": 12,
      "name": "floatBufferViews",
      "target": 34962
    }
  ],
  "buffers": [
    {
      "byteLength": 2507448,
      "uri": "scene.bin"
    }
  ],
  "images": [
    {
      "uri": "textures/wire_086086086_baseColor.jpeg"
    },
    {
      "uri": "textures/wire_086086086_metallicRoughness.png"
    },
    {
      "uri": "textures/wire_086086086_emissive.jpeg"
    }
  ],
  "materials": [
    {
      "doubleSided": true,
      "emissiveFactor": [
        1.0,
        1.0,
        1.0
      ],
      "emissiveTexture": {
        "index": 2
      },
      "name": "wire_086086086",
      "occlusionTexture": {
        "index": 1
      },
      "pbrMetallicRoughness": {
        "baseColorTexture": {
          "index": 0
        },
        "metallicRoughnessTexture": {
          "index": 1
        }
      }
    }
  ],
  "meshes": [
    {
      "name": "7 L_wire_086086086_0",
      "primitives": [
        {
          "attributes": {
            "NORMAL": 1,
            "POSITION": 0,
            "TEXCOORD_0": 2,
            "TEXCOORD_1": 3,
            "TEXCOORD_2": 4
          },
          "indices": 5,
          "material": 0,
          "mode": 4
        }
      ]
    }
  ],
  "nodes": [
    {
      "children": [
        1
      ],
      "matrix": [
        1.0,
        0.0,
        0.0,
        0.0,
        0.0,
        2.220446049250313e-16,
        -1.0,
        0.0,
        0.0,
        1.0,
        2.220446049250313e-16,
        0.0,
        0.0,
        0.0,
        0.0,
        1.0
      ],
      "name": "Sketchfab_model"
    },
    {
      "children": [
        2
      ],
      "matrix": [
        0.009999999776482582,
        0.0,
        0.0,
        0.0,
        0.0,
        0.0,
        0.009999999776482582,
        0.0,
        0.0,
        -0.009999999776482582,
        0.0,
        0.0,
        0.0,
        0.0,
        0.0,
        1.0
      ],
      "name": "12d3a3ea11a54cdf9f8470136cd5116a.fbx"
    },
    {
      "children": [
        3
      ],
      "name": "RootNode"
    },
    {
      "children": [
        4
      ],
      "matrix": [
        19.93206787109375,
        0.0,
        0.0,
        0.0,
        0.0,
        19.932067871093484,
        3.2473464331395995e-06,
        0.0,
        0.0,
        -3.2473464331395995e-06,
        19.932067871093484,
        0.0,
        0.0,
        0.0,
        0.0,
        1.0
      ],
      "name": "7 L"
    },
    {
      "mesh": 0,
      "name": "7 L_wire_086086086_0"
    }
  ],
  "samplers": [
    {
      "magFilter": 9729,
      "minFilter": 9987,
      "wrapS": 10497,
      "wrapT": 10497
    }
  ],
  "scene": 0,
  "scenes": [
    {
      "name": "Sketchfab_Scene",
      "nodes": [
        0
      ]
    }
  ],
  "textures": [
    {
      "sampler": 0,
      "source": 0
    },
    {
      "sampler": 0,
      "source": 1
    },
    {
      "sampler": 0,
      "source": 2
    }
  ]
}
