{
  "accessors": [
    {
      "bufferView": 2,
      "componentType": 5126,
      "count": 384,
      "max": [
        0.015289000235497952,
        -0.37983599305152893,
        2.42922306060791
      ],
      "min": [
        -0.007981999777257442,
        -0.38342800736427307,
        1.7682100534439087
      ],
      "type": "VEC3"
    },
    {
      "bufferView": 2,
      "byteOffset": 4608,
      "componentType": 5126,
      "count": 384,
      "max": [
        0.99005126953125,
        -0.08530537784099579,
        0.9765587449073792
      ],
      "min": [
        -0.9763327240943909,
        -0.9997970461845398,
        -0.993045449256897
      ],
      "type": "VEC3"
    },
    {
      "bufferView": 1,
      "componentType": 5126,
      "count": 384,
      "max": [
        0.0,
        0.0
      ],
      "min": [
        0.0,
        0.0
      ],
      "type": "VEC2"
    },
    {
      "bufferView": 0,
      "componentType": 5125,
      "count": 2100,
      "type": "SCALAR"
    },
    {
      "bufferView": 2,
      "byteOffset": 9216,
      "componentType": 5126,
      "count": 224,
      "max": [
        0.7973430156707764,
        -0.37564000487327576,
        2.896522045135498
      ],
      "min": [
        -0.7974389791488647,
        -0.3876590132713318,
        1.301740050315857
      ],
      "type": "VEC3"
    },
    {
      "bufferView": 2,
      "byteOffset": 11904,
      "componentType": 5126,
      "count": 224,
      "max": [
        0.967284083366394,
        0.9965479969978333,
        0.967284083366394
      ],
      "min": [
        -0.967284083366394,
        -0.9997817873954773,
        -0.9672595262527466
      ],
      "type": "VEC3"
    },
    {
      "bufferView": 1,
      "byteOffset": 3072,
      "componentType": 5126,
      "count": 224,
      "max": [
        0.7580260038375854,
        0.5097280144691467
      ],
      "min": [
        0.0,
        0.0
      ],
      "type": "VEC2"
    },
    {
      "bufferView": 0,
      "byteOffset": 8400,
      "componentType": 5125,
      "count": 960,
      "type": "SCALAR"
    },
    {
      "bufferView": 2,
      "byteOffset": 14592,
      "componentType": 5126,
      "count": 32,
      "max": [
        0.7503659725189209,
        -0.3756769895553589,
        2.8495450019836426
      ],
      "min": [
        -0.750461995601654,
        -0.3756769895553589,
        1.3487169742584229
      ],
      "type": "VEC3"
    },
    {
      "bufferView": 2,
      "byteOffset": 14976,
      "componentType": 5126,
      "count": 32,
      "max": [
        0.0,
        -1.0,
        -0.0
      ],
      "min": [
        0.0,
        -1.0,
        -0.0
      ],
      "type": "VEC3"
    },
    {
      "bufferView": 1,
      "byteOffset": 4864,
      "componentType": 5126,
      "count": 32,
      "max": [
        0.9967319965362549,
        0.9997490048408508
      ],
      "min": [
        -0.0021619999315589666,
        0.0008539999835193157
      ],
      "type": "VEC2"
    },
    {
      "bufferView": 0,
      "byteOffset": 12240,
      "componentType": 5125,
      "count": 90,
      "type": "SCALAR"
    },
    {
      "bufferView": 2,
      "byteOffset": 15360,
      "componentType": 5126,
      "count": 224,
      "max": [
        0.7576649785041809,
        -0.3800790011882782,
        2.8562910556793213
      ],
      "min": [
        -0.7566549777984619,
        -0.46673598885536194,
        1.3419710397720337
      ],
      "type": "VEC3"
    },
    {
      "bufferView": 2,
      "byteOffset": 18048,
      "componentType": 5126,
      "count": 224,
      "max": [
        0.43501192331314087,
        -0.9004199504852295,
        0.43501192331314087
      ],
      "min": [
        -0.43501192331314087,
        -0.9999240636825562,
        -0.43501192331314087
      ],
      "type": "VEC3"
    },
    {
      "bufferView": 1,
      "byteOffset": 5120,
      "componentType": 5126,
      "count": 224,
      "max": [
        0.8293110132217407,
        0.9923610091209412
      ],
      "min": [
        0.1473190039396286,
        0.005931000225245953
      ],
      "type": "VEC2"
    },
    {
      "bufferView": 0,
      "byteOffset": 12600,
      "componentType": 5125,
      "count": 1242,
      "type": "SCALAR"
    },
    {
      "bufferView": 2,
      "byteOffset": 20736,
      "componentType": 5126,
      "count": 1560,
      "max": [
        0.6867210268974304,
        -0.3737359941005707,
        2.450711965560913
      ],
      "min": [
        -0.45503801107406616,
        -0.40332499146461487,
        1.686939001083374
      ],
      "type": "VEC3"
    },
    {
      "bufferView": 2,
      "byteOffset": 39456,
      "componentType": 5126,
      "count": 1560,
      "max": [
        0.9999655485153198,
        1.0,
        0.9999819993972778
      ],
      "min": [
        -0.9995880722999573,
        -1.0,
        -0.9997400641441345
      ],
      "type": "VEC3"
    },
    {
      "bufferView": 1,
      "byteOffset": 6912,
      "componentType": 5126,
      "count": 1560,
      "max": [
        0.0,
        0.0
      ],
      "min": [
        0.0,
        0.0
      ],
      "type": "VEC2"
    },
    {
      "bufferView": 0,
      "byteOffset": 17568,
      "componentType": 5125,
      "count": 8790,
      "type": "SCALAR"
    },
    {
      "bufferView": 2,
      "byteOffset": 58176,
      "componentType": 5126,
      "count": 256,
      "max": [
        0.020129000768065453,
        -0.3987799882888794,
        2.1192500591278076
      ],
      "min": [
        -0.02027199976146221,
        -0.40402498841285706,
        2.078847885131836
      ],
      "type": "VEC3"
    },
    {
      "bufferView": 2,
      "byteOffset": 61248,
      "componentType": 5126,
      "count": 256,
      "max": [
        0.9813762903213501,
        0.685745120048523,
        0.9813951253890991
      ],
      "min": [
        -0.9813762903213501,
        -0.9996904730796814,
        -0.9813762903213501
      ],
      "type": "VEC3"
    },
    {
      "bufferView": 1,
      "byteOffset": 19392,
      "componentType": 5126,
      "count": 256,
      "max": [
        0.0,
        0.0
      ],
      "min": [
        0.0,
        0.0
      ],
      "type": "VEC2"
    },
    {
      "bufferView": 0,
      "byteOffset": 52728,
      "componentType": 5125,
      "count": 1524,
      "type": "SCALAR"
    },
    {
      "bufferView": 2,
      "byteOffset": 64320,
      "componentType": 5126,
      "count": 2288,
      "max": [
        1.1553540229797363,
        0.5549899935722351,
        3.0586740970611572
      ],
      "min": [
        -1.156574010848999,
        -0.5869609713554382,
        -0.006719000171869993
      ],
      "type": "VEC3"
    },
    {
      "bufferView": 2,
      "byteOffset": 91776,
      "componentType": 5126,
      "count": 2288,
      "max": [
        1.0,
        1.0,
        1.0
      ],
      "min": [
        -1.0,
        -1.0,
        -1.0
      ],
      "type": "VEC3"
    },
    {
      "bufferView": 1,
      "byteOffset": 21440,
      "componentType": 5126,
      "count": 2288,
      "max": [
        0.9950169920921326,
        0.880981981754303
      ],
      "min": [
        0.0022460001055151224,
        0.012233000248670578
      ],
      "type": "VEC2"
    },
    {
      "bufferView": 0,
      "byteOffset": 58824,
      "componentType": 5125,
      "count": 10518,
      "type": "SCALAR"
    }
  ],
  "asset": {
    "extras": {
      "author": "Fishboe (https://sketchfab.com/ministephen)",
      "license": "CC-BY-4.0 (http://creativecommons.org/licenses/by/4.0/)",
      "source": "https://sketchfab.com/3d-models/antique-1930s-clock-7ea0929918f44c3f89c093b15b91a587",
      "title": "Antique 1930s Clock"
    },
    "generator": "Sketchfab-12.68.0",
    "version": "2.0"
  },
  "bufferViews": [
    {
      "buffer": 0,
      "byteLength": 100896,
      "name": "floatBufferViews",
      "target": 34963
    },
    {
      "buffer": 0,
      "byteLength": 39744,
      "byteOffset": 100896,
      "byteStride": 8,
      "name": "floatBufferViews",
      "target": 34962
    },
    {
      "buffer": 0,
      "byteLength": 119232,
      "byteOffset": 140640,
      "byteStride": 12,
      "name": "floatBufferViews",
      "target": 34962
    }
  ],
  "buffers": [
    {
      "byteLength": 259872,
      "uri": "scene.bin"
    }
  ],
  "extensionsRequired": [
    "KHR_materials_pbrSpecularGlossiness"
  ],
  "extensionsUsed": [
    "KHR_materials_pbrSpecularGlossiness"
  ],
  "images": [
    {
      "uri": "textures/WOOD_diffuse.png"
    },
    {
      "uri": "textures/WOOD_specularGlossiness.png"
    },
    {
      "uri": "textures/clockface_diffuse.png"
    },
    {
      "uri": "textures/clockface_specularGlossiness.png"
    },
    {
      "uri": "textures/glass_diffuse.jpeg"
    },
    {
      "uri": "textures/glass_specularGlossiness.png"
    }
  ],
  "materials": [
    {
      "doubleSided": true,
      "extensions": {
        "KHR_materials_pbrSpecularGlossiness": {
          "diffuseFactor": [
            0.4546122041138463,
            0.4546122041138463,
            0.4546122041138463,
            1.0
          ],
          "diffuseTexture": {
            "index": 0
          },
          "glossinessFactor": 1.0,
          "specularFactor": [
            0.01436063178680228,
            0.01436063178680228,
            0.01436063178680228
          ],
          "specularGlossinessTexture": {
            "index": 1
          }
        }
      },
      "name": "WOOD"
    },
    {
      "doubleSided": true,
      "extensions": {
        "KHR_materials_pbrSpecularGlossiness": {
          "diffuseFactor": [
            0.05506399410926103,
            0.045905691130980746,
            0.026926333134745142,
            1.0
          ],
          "glossinessFactor": 1.0,
          "specularFactor": [
            0.46719082046604754,
            0.46719082046604754,
            0.46719082046604754
          ]
        }
      },
      "name": "brassbolt"
    },
    {
      "doubleSided": true,
      "extensions": {
        "KHR_materials_pbrSpecularGlossiness": {
          "diffuseFactor": [
            0.10205454316529089,
            0.10205454316529089,
            0.10205454316529089,
            1.0
          ],
          "glossinessFactor": 1.0,
          "specularFactor": [
            0.5866876758119595,
            0.5866876758119595,
            0.5866876758119595
          ]
        }
      },
      "name": "chrome"
    },
    {
      "doubleSided": true,
      "extensions": {
        "KHR_materials_pbrSpecularGlossiness": {
          "diffuseFactor": [
            1.0,
            1.0,
            1.0,
            1.0
          ],
          "diffuseTexture": {
            "index": 2
          },
          "glossinessFactor": 1.0,
          "specularFactor": [
            0.0,
            0.0,
            0.0
          ],
          "specularGlossinessTexture": {
            "index": 3
          }
        }
      },
      "name": "clockface"
    },
    {
      "alphaMode": "BLEND",
      "doubleSided": true,
      "extensions": {
        "KHR_materials_pbrSpecularGlossiness": {
          "diffuseFactor": [
            1.0,
            1.0,
            1.0,
            0.40429773870504127
          ],
          "diffuseTexture": {
            "index": 4
          },
          "glossinessFactor": 1.0,
          "specularFactor": [
            0.17788264436541862,
            0.17788264436541862,
            0.17788264436541862
          ],
          "specularGlossinessTexture": {
            "index": 5
          }
        }
      },
      "name": "glass"
    },
    {
      "doubleSided": true,
      "extensions": {
        "KHR_materials_pbrSpecularGlossiness": {
          "diffuseFactor": [
            0.006457058888561321,
            0.006457058888561321,
            0.006457058888561321,
            1.0
          ],
          "glossinessFactor": 0.9074423927930916,
          "specularFactor": [
            0.033228556315104164,
            0.033228556315104164,
            0.033228556315104164
          ]
        }
      },
      "name": "hands"
    },
    {
      "doubleSided": true,
      "extensions": {
        "KHR_materials_pbrSpecularGlossiness": {
          "diffuseFactor": [
            0.07689731046088838,
            0.07689731046088838,
            0.07689731046088838,
            1.0
          ],
          "glossinessFactor": 1.0,
          "specularFactor": [
            0.9263103173213935,
            0.9263103173213935,
            0.9263103173213935
          ]
        }
      },
      "name": "steelbolt"
    }
  ],
  "meshes": [
    {
      "name": "Object_0",
      "primitives": [
        {
          "attributes": {
            "NORMAL": 1,
            "POSITION": 0,
            "TEXCOORD_0": 2
          },
          "indices": 3,
          "material": 1,
          "mode": 4
        }
      ]
    },
    {
      "name": "Object_1",
      "primitives": [
        {
          "attributes": {
            "NORMAL": 5,
            "POSITION": 4,
            "TEXCOORD_0": 6
          },
          "indices": 7,
          "material": 2,
          "mode": 4
        }
      ]
    },
    {
      "name": "Object_2",
      "primitives": [
        {
          "attributes": {
            "NORMAL": 9,
            "POSITION": 8,
            "TEXCOORD_0": 10
          },
          "indices": 11,
          "material": 3,
          "mode": 4
        }
      ]
    },
    {
      "name": "Object_3",
      "primitives": [
        {
          "attributes": {
            "NORMAL": 13,
            "POSITION": 12,
            "TEXCOORD_0": 14
          },
          "indices": 15,
          "material": 4,
          "mode": 4
        }
      ]
    },
    {
      "name": "Object_4",
      "primitives": [
        {
          "attributes": {
            "NORMAL": 17,
            "POSITION": 16,
            "TEXCOORD_0": 18
          },
          "indices": 19,
          "material": 5,
          "mode": 4
        }
      ]
    },
    {
      "name": "Object_5",
      "primitives": [
        {
          "attributes": {
            "NORMAL": 21,
            "POSITION": 20,
            "TEXCOORD_0": 22
          },
          "indices": 23,
          "material": 6,
          "mode": 4
        }
      ]
    },
    {
      "name": "Object_6",
      "primitives": [
        {
          "attributes": {
            "NORMAL": 25,
            "POSITION": 24,
            "TEXCOORD_0": 26
          },
          "indices": 27,
          "material": 0,
          "mode": 4
        }
      ]
    }
  ],
  "nodes": [
    {
      "children": [
        1
      ],
      "matrix": [
        0.10418867319822311,
        0.0,
        0.0,
        0.0,
        0.0,
        2.313453277796265e-17,
        -0.10418867319822311,
        0.0,
        0.0,
        0.10418867319822311,
        2.313453277796265e-17,
        0.0,
        0.0,
        0.0,
        0.0,
        1.0
      ],
      "name": "Sketchfab_model"
    },
    {
      "children": [
        2,
        3,
        4,
        5,
        6,
        7,
        8
      ],
      "name": "clock.obj.cleaner.materialmerger.gles"
    },
    {
      "mesh": 0,
      "name": "Object_2"
    },
    {
      "mesh": 1,
      "name": "Object_3"
    },
    {
      "mesh": 2,
      "name": "Object_4"
    },
    {
      "mesh": 3,
      "name": "Object_5"
    },
    {
      "mesh": 4,
      "name": "Object_6"
    },
    {
      "mesh": 5,
      "name": "Object_7"
    },
    {
      "mesh": 6,
      "name": "Object_8"
    }
  ],
  "samplers": [
    {
      "magFilter": 9729,
      "minFilter": 9987,
      "wrapS": 10497,
      "wrapT": 10497
    }
  ],
  "scene": 0,
  "scenes": [
    {
      "name": "Sketchfab_Scene",
      "nodes": [
        0
      ]
    }
  ],
  "textures": [
    {
      "sampler": 0,
      "source": 0
    },
    {
      "sampler": 0,
      "source": 1
    },
    {
      "sampler": 0,
      "source": 2
    },
    {
      "sampler": 0,
      "source": 3
    },
    {
      "sampler": 0,
      "source": 4
    },
    {
      "sampler": 0,
      "source": 5
    }
  ]
}
